<?xml version="1.0" encoding="utf-8"?>
<!-- Svg Vector Icons : http://www.onlinewebfonts.com/icon -->
<!DOCTYPE svg PUBLIC "-//W3C//DTD SVG 1.1//EN" "http://www.w3.org/Graphics/SVG/1.1/DTD/svg11.dtd">
<svg version="1.1" xmlns="http://www.w3.org/2000/svg" xmlns:xlink="http://www.w3.org/1999/xlink" x="0px" y="0px" viewBox="0 0 1000 1000" enable-background="new 0 0 1000 1000" xml:space="preserve">
<metadata> Svg Vector Icons : http://www.onlinewebfonts.com/icon </metadata>
<g><g><g><path d="M689.3,482c6.1,0,11,4.9,11,11s-4.9,11-11,11s-11-4.9-11-11S683.3,482,689.3,482z"/><path d="M562.3,525.1c13.6,0,24.7-11.1,24.7-24.7c0-13.6-11.1-24.7-24.7-24.7c-13.6,0-24.7,11.1-24.7,24.7C537.6,514,548.7,525.1,562.3,525.1z M562.3,484c9,0,16.4,7.3,16.4,16.4c0,9.1-7.4,16.4-16.4,16.4c-9,0-16.4-7.4-16.4-16.4C545.9,491.3,553.3,484,562.3,484z"/><path d="M891.9,52L332.8,10c-3.6-0.3-7.2,1-9.9,3.5c-1.3,1.2-2.3,2.6-3,4.1L105,89.3c-5.3,1.8-9,6.8-9,12.4v747.7c0,4.8,2.6,9.2,6.8,11.4l216.8,120.5c0.7,2,1.9,3.9,3.5,5.4c2.4,2.1,5.5,3.3,8.7,3.3c0.5,0,1,0,1.5-0.1l559-62.9c6.6-0.8,11.6-6.4,11.6-13v-849C904,58.2,898.7,52.5,891.9,52z M316.2,949.4L122.3,841.7V111.2l193.9-64.7V949.4z M877.8,902.3l-532.8,59.9v-925l532.8,40V902.3z"/><path d="M433.3,745.5c0.3,0,0.6,0,0.9,0l366.4-26.1c12.8-0.3,23-10.8,23-23.6V206.6c0-12.8-10.3-23.3-23-23.6l-366.4-26.2c-0.3,0-0.6,0-0.9,0c-13,0-23.6,10.6-23.6,23.6v541.5C409.8,735,420.3,745.5,433.3,745.5z M618.1,287.9c14.8-9.2,24.6-25.5,24.6-44.1c0-2.6-0.2-5.1-0.6-7.6l44.5,1.9c5.8,0,10.5-4.7,10.5-10.5v-25.7l100.5,7.2v484.2l-328.3,23.4V596.9l294.4-10.3v106.1h10.5v-117l-199.8,7c1.4-1.6,2.5-3.3,3.3-5.4l4.1-11.7l11.2,5.3c5.9,2.8,13.2,1.9,18.2-2.1c5.3-4.2,10.2-9.1,14.7-14.6c4.2-5.2,5-12.3,2.2-18.4l-5.3-11.2l4.9-1.8c0.6,1.8,1.6,3.5,2.8,5c2.9,3.6,6.2,6.9,9.9,9.9c5.1,4,12.4,4.9,18.2,2.2c2.4,6.5,8.4,11,15.3,11.4l5.7,0.3l6.4-0.3c7-0.4,13-4.9,15.4-11.4c2.3,1,4.8,1.6,7.3,1.6c3.9,0,7.7-1.3,10.8-3.8c3.6-2.9,6.9-6.2,10-9.9c4.1-5.2,5-12.3,2.2-18.2c6.5-2.4,11-8.4,11.4-15.4l0.3-6.2l-0.3-5.9c-0.4-6.9-4.9-12.9-11.5-15.2c2.8-6,2-13.1-2.2-18.2c-2.9-3.7-6.2-7-10-10c-5-4-12.4-4.8-18.1-2.1c-2.4-6.5-8.4-11-15.4-11.4l-6.2-0.3l-5.7,0.3c-7,0.4-13.1,4.8-15.4,11.4c-3.9-1.8-8.4-1.9-12.4-0.6c-4.7-3.9-12.6-7.7-22-12.1c-10.9-5.2-29.2-13.8-31.3-19.8c-0.6-1.6-1.1-3.8-0.3-4.9c2.8-4.3,17.8-5.4,26.8-6.1c8.5-0.6,15.8-1.2,20.4-3.4c19.3-8.3,22.8-18.8,22.5-26.3c-0.6-11.6-11.7-22.1-29.1-27.5c-4.1-1.4-8.6-2.4-13.1-3.4c-16.6-3.8-23.3-6.4-22.9-16.9C603.4,309.9,612.7,300,618.1,287.9z M485.2,513c-1.7-0.6-2.9-2.2-3-4l-0.5-8.4l0.5-8.9c0.1-1.8,1.3-3.4,3-4l25.2-8.9l-11.5-24.1c-0.7-1.6-0.5-3.4,0.6-4.7c3.8-4.7,8.1-9,12.6-12.5c1.3-1.1,3.2-1.3,4.7-0.5l24.1,11.4l8.9-25.2c0.6-1.7,2.1-2.9,3.9-3l8.4-0.5l8.9,0.5c1.8,0.1,3.4,1.3,4,3l9,25.2l24.1-11.5c1.5-0.8,3.4-0.5,4.7,0.6c4.6,3.7,8.8,7.9,12.5,12.6c1.1,1.3,1.3,3.2,0.5,4.7l-11.4,24.1l24.8,8.8c0.1-1.8,1.2-3.4,2.9-4l13.3-4.7l-6.1-12.8c-0.7-1.5-0.5-3.4,0.5-4.7c2.4-3,5.1-5.6,7.9-7.9c1.3-1.1,3.2-1.3,4.7-0.5l12.7,6.1l4.8-13.4c0.6-1.7,2.1-2.9,3.9-3l5.1-0.3l5.6,0.3c1.8,0.1,3.3,1.3,3.9,3l4.7,13.3l12.8-6.1c1.5-0.8,3.4-0.5,4.7,0.6c2.9,2.3,5.5,5,7.8,7.9c1.1,1.3,1.3,3.2,0.5,4.7l-6,12.7l13.4,4.8c1.7,0.6,2.8,2.2,2.9,4l0.3,5.1l-0.3,5.6c-0.1,1.8-1.3,3.4-2.9,4l-13.3,4.7l6,12.8c0.8,1.6,0.5,3.4-0.5,4.7c-2.4,2.9-5,5.6-7.9,7.9c-1.3,1-3.2,1.3-4.7,0.5l-12.8-6.1l-4.7,13.4c-0.6,1.7-2.1,2.8-3.9,3l-5.1,0.3c-0.1,0-0.2,0-0.3,0s-0.2,0-0.3,0l-5.1-0.3c-1.8-0.1-3.3-1.3-3.9-3l-4.7-13.4l-12.8,6.1c-1.5,0.7-3.4,0.5-4.7-0.5c-2.9-2.4-5.6-5-7.9-7.9c-1.1-1.3-1.3-3.2-0.5-4.7l6-12.8l-12.6-4.5l-0.4,6.5c-0.1,1.8-1.2,3.4-3,4l-25.1,9l11.5,24.1c0.7,1.6,0.5,3.4-0.5,4.7c-3.8,4.7-8,8.9-12.6,12.6c-1.3,1.1-3.2,1.2-4.7,0.5l-24.1-11.5l-9,25.2c-0.6,1.7-2.1,2.8-4,2.9l-8.4,0.5c-0.1,0-0.2,0-0.3,0c-0.1,0-0.2,0-0.3,0l-8.4-0.5c-1.8-0.1-3.3-1.2-3.9-2.9l-9-25.2l-24.1,11.5c-1.5,0.7-3.4,0.5-4.7-0.6c-4.7-3.8-8.9-8-12.5-12.6c-1.1-1.4-1.3-3.2-0.6-4.7l11.5-24.1L485.2,513z M628.2,467c-0.8,0.3-1.5,0.6-2.3,1l-3.2-1.2l3.9-8.3C626.4,461.4,626.9,464.3,628.2,467z M628.7,442.8c1.9,1,3.5,1.9,5,2.7c-1.1,1.1-2.3,2-3.3,3.2c-0.3,0.3-0.5,0.7-0.8,1C629.8,447.5,629.4,445.1,628.7,442.8z M435.9,183.3l58.5,4.2v32.3c0,5.8,4.7,10.5,10.5,10.5l35.3,1.5c-0.9,3.9-1.5,7.9-1.5,12c0,18.7,9.9,34.9,24.6,44.1c4.9,11,13,20.1,19.1,26c-1.3,24.8,19.6,29.9,34.2,33.2c3.9,0.9,7.9,1.8,11.7,3.1c12,3.8,18.6,9.9,18.8,14.1c0.2,3.6-5,8.1-13.8,11.9c-2.3,1.1-9.5,1.7-15.4,2.1c-14.7,1.1-31.3,2.4-38.1,12.8c-2.3,3.5-4.3,9.4-1.3,17.9c1.7,4.9,5.7,9.2,11,13.1l-7.9,3.8l-4.1-11.6c-2.3-6.6-8.4-11.2-15.5-11.6l-9.6-0.5l-9.1,0.5c-7,0.4-13.1,4.9-15.4,11.5l-4.1,11.7l-11.2-5.3c-5.9-2.8-13.3-1.9-18.2,2.1c-5.3,4.2-10.2,9.1-14.6,14.5c-4.2,5.2-5.1,12.4-2.2,18.4l5.3,11.2l-11.7,4.2c-6.6,2.3-11.1,8.4-11.5,15.5l-0.5,9.6l0.5,9.1c0.4,7,5,13.1,11.5,15.4l11.7,4.2l-5.3,11.3c-2.8,6-2,13.1,2.1,18.2c4.3,5.3,9.2,10.2,14.5,14.6c5.1,4.1,12.4,5,18.3,2.1l11.2-5.3l4.2,11.6c1,2.8,2.7,5,4.7,6.9l-74.1,2.6v0.4l-22.8,2.6L435.9,183.3L435.9,183.3z M435.9,600.3l22.8-2.6v119.8l-22.8,1.6V600.3z"/><path d="M169.1,715.3l92.6,33.4c1.4,0.5,2.9,0.8,4.5,0.8c13,0,23.6-10.6,23.6-23.6V184.5c0-13-10.6-23.6-23.6-23.6c-0.9,0-1.7,0.1-2.6,0.2l-93.3,18.4c-12.3,0.8-22.1,11.1-22.1,23.6v488.8C148.2,704,157.4,714,169.1,715.3z M174.5,205.4l89.1-17.6v421.9l-49.8,8.2v84.9l10.5,2.6v-78.6l39.3-6.5v101.3l-87.3-31.5c-0.6-0.2-1.2-0.4-1.8-0.5V205.4z"/><path d="M504.3,848.8v-0.2c6.1-2.9,9-8,8.9-13.8c-0.2-7.3-5.8-13.2-16.1-12.3c-6,0.5-11.5,3-14.3,5.5l2.4,7.4c2-1.7,6-4,10.1-4.4c5.5-0.4,8.1,2.5,8.2,6.2c0.2,5.6-5.3,8.3-9.7,8.6l-4.3,0.4l0.2,7.7l4.4-0.4c5.8-0.5,11.4,1.9,11.6,8.4c0.2,4.4-2.6,9.2-9.8,9.8c-4.8,0.4-9.6-1.3-11.5-2.5l-1.9,8.1c2.7,1.8,8.1,3.2,14.1,2.7c12.4-1.1,19.3-9.1,18.9-18.5C515.5,854.2,510.4,849.5,504.3,848.8z"/><path d="M533.7,817.9c-5.6,0.4-10.9,1.4-15.1,2.5l1.8,56.7c3.1,0.2,7.3,0.1,12.8-0.4c10.1-0.8,18.3-4.2,23.3-9.9c4.8-5.4,7.7-13.4,7.4-23.6c-0.3-9.9-3.6-16.4-8.7-20.5C550.2,818.8,543.5,817.1,533.7,817.9z M534.9,868.3c-1.9,0.1-3.9,0.3-5.3,0.2l-1.3-41.2c1.3-0.4,3.5-0.9,6.5-1.1c11.9-1,18.7,5.7,19,18.5C554.4,859.1,547.2,867.3,534.9,868.3z"/><path d="M605,816.4c-5.9,0.5-10.2,1.4-13.3,2.2l1.7,52.4l8.7-0.7l-0.6-20c1.2,0.1,2.6,0.1,4.3,0c6.2-0.5,11.6-2.8,15-6.9c2.6-3.1,3.9-7.4,3.7-12.4c-0.1-5-2.1-9-5-11.4C616.1,816.9,611.4,815.8,605,816.4z M605.4,842.7c-1.8,0.2-3.2,0.2-4.3,0l-0.6-18c0.9-0.3,2.7-0.7,5.1-0.9c6-0.5,9.8,2.3,10,8.3C615.8,838.3,611.9,842.2,605.4,842.7z"/><path d="M648,827.1c-3.7,0.3-7.7,3.5-9.2,9l-0.3,0l-0.5-7.4l-7.6,0.7c0.3,3.5,0.5,7.2,0.7,12.4l0.8,26l8.7-0.8l-0.6-19.9c0-1.1,0.1-2.1,0.2-3c0.6-4.4,3.5-7.7,7.6-8c1.1-0.1,1.8,0,2.6,0.1l-0.3-9.2C649.3,827,648.8,827,648,827.1z"/><polygon points="656,827.3 657.2,865.7 666,865 664.8,826.5 "/><path d="M660.2,821.4c3-0.2,4.9-2.7,4.8-5.6c-0.2-3-2.1-5.1-5.1-4.9c-2.9,0.2-4.8,2.7-4.8,5.7C655.2,819.5,657.2,821.6,660.2,821.4z"/><path d="M693.2,823.2c-5.7,0.5-9.4,4.4-10.8,7.6l-0.2,0l-0.6-5.7l-7.7,0.7c0.3,3.3,0.5,7,0.6,11.4l0.9,27l8.8-0.8l-0.7-22.6c0-1.1,0-2.3,0.2-3.2c0.9-3,3.2-6,6.7-6.3c4.8-0.4,6.8,3.6,6.9,9.1l0.7,21.7l8.7-0.8l-0.7-22.8C705.6,826.5,699.3,822.7,693.2,823.2z"/><path d="M730,852.4c-3.4,0.3-4.6-2.1-4.7-6.7l-0.5-17l8.3-0.7l-0.2-7.3l-8.3,0.7l-0.3-10.9l-8.4,3l0.3,8.7l-5,0.4l0.2,7.3l5-0.4l0.6,18.1c0.2,5,1.1,8.4,3,10.5c1.7,1.8,4.4,2.8,7.6,2.5c2.8-0.2,5-0.8,6.3-1.5l-0.4-7.4C732.6,851.9,731.5,852.3,730,852.4z"/><path d="M753.7,818.1c-11.1,0.9-16.6,11.4-16.3,22.1c0.4,11.7,7.2,18.8,18.4,17.9c5-0.4,9.1-1.8,12-3.4l-1.4-6.6c-2.7,1.3-5.5,2.2-9.6,2.5c-5.6,0.5-10.6-2.1-11-9.1l23.2-2c0.2-0.9,0.2-2.3,0.2-4.1C769,827.1,765,817.2,753.7,818.1z M745.7,834.9c0.2-4,2.4-9.6,7.7-10.1c5.9-0.5,7.5,5.2,7.5,8.8L745.7,834.9z"/><path d="M793.1,814.8c-3.7,0.3-7.7,3.4-9.2,9l-0.3,0l-0.5-7.3l-7.6,0.7c0.3,3.5,0.5,7.2,0.7,12.4l0.8,26.1l8.7-0.8l-0.6-19.9c0-1.1,0.1-2.1,0.2-3c0.6-4.4,3.4-7.6,7.6-8c1.1-0.1,1.9,0,2.6,0.1l-0.3-9.2C794.4,814.7,793.9,814.7,793.1,814.8z"/></g></g><g></g><g></g><g></g><g></g><g></g><g></g><g></g><g></g><g></g><g></g><g></g><g></g><g></g><g></g><g></g></g>
</svg>